<?xml version="1.0" encoding="UTF-8"?> <svg xmlns="http://www.w3.org/2000/svg" xmlns:xlink="http://www.w3.org/1999/xlink" width="180px" height="180px" viewBox="0 0 180 180" version="1.1"><title>facebook-profile-solera</title><defs><linearGradient x1="67.1237693%" y1="0%" x2="67.1237693%" y2="704.732304%" id="linearGradient-1"><stop stop-color="#2E2E78" offset="0%"></stop><stop stop-color="#2E2E78" offset="11%"></stop><stop stop-color="#692C81" offset="100%"></stop></linearGradient><linearGradient x1="31.8361607%" y1="-604.732304%" x2="31.8361607%" y2="100%" id="linearGradient-2"><stop stop-color="#2E2E78" offset="0%"></stop><stop stop-color="#2E2E78" offset="11%"></stop><stop stop-color="#692C81" offset="100%"></stop></linearGradient><linearGradient x1="32.7868852%" y1="-453.739128%" x2="32.7868852%" y2="250.992418%" id="linearGradient-3"><stop stop-color="#2E2E78" offset="0%"></stop><stop stop-color="#2E2E78" offset="11%"></stop><stop stop-color="#692C81" offset="100%"></stop></linearGradient><linearGradient x1="66.6945018%" y1="-151.182839%" x2="66.6945018%" y2="553.40818%" id="linearGradient-4"><stop stop-color="#2E2E78" offset="0%"></stop><stop stop-color="#2E2E78" offset="11%"></stop><stop stop-color="#692C81" offset="100%"></stop></linearGradient><linearGradient x1="55.0357733%" y1="-269.853089%" x2="55.0357733%" y2="437.432079%" id="linearGradient-5"><stop stop-color="#2E2E78" offset="0%"></stop><stop stop-color="#2E2E78" offset="11%"></stop><stop stop-color="#692C81" offset="100%"></stop></linearGradient></defs><g id="facebook-profile-solera" stroke="none" stroke-width="1" fill="none" fill-rule="evenodd"><rect id="Rectangle" fill="#FFFFFF" x="0" y="0" width="180" height="180"></rect><g id="Symbol-Color" transform="translate(25.000000, 40.000000)" fill-rule="nonzero"><path d="M74.7474747,0 L74.6565514,0 L56.5258776,0.0198495887 L42.4242424,14.1414141 L54.0141215,14.1414141 C63.4303655,14.1414141 71.8095157,8.43607521 74.7474747,0 Z" id="Path" fill="#919395"></path><path d="M54.5454545,100 L54.6363699,100 L72.7654501,99.9801504 L86.8686869,85.8585859 L75.2798265,85.8585859 C65.861569,85.8585859 57.4831554,91.5639248 54.5454545,100 Z" id="Path" fill="#919395"></path><path d="M43.4343434,78.7878788 L43.5792461,78.7878788 L93.7865891,78.753851 L108.080808,64.6464646 L58.3110142,64.6464646 C50.0970235,64.6351373 43.4343434,70.9671492 43.4343434,78.7878788 Z" id="Path" fill="#919395"></path><path d="M85.8585859,21.2121212 L85.7875552,21.2121212 L35.3614375,21.2489773 L21.2121212,35.3535354 L70.9819151,35.3535354 C79.1959058,35.3535354 85.8585859,29.022786 85.8585859,21.2121212 Z" id="Path" fill="#919395"></path><polygon id="Path" fill="#919395" points="0 57.5643739 114.105102 57.5757576 115.411551 57.5757576 129.292929 43.5396428 14.1830857 43.4343434"></polygon><path d="M74.7474747,0 L74.6565514,0 L56.5258776,0.0198495887 L42.4242424,14.1414141 L54.0141215,14.1414141 C63.4303655,14.1414141 71.8095157,8.43607521 74.7474747,0 Z" id="Path" fill="url(#linearGradient-1)"></path><path d="M54.5454545,100 L54.6363699,100 L72.7654501,99.9801504 L86.8686869,85.8585859 L75.2798265,85.8585859 C65.861569,85.8585859 57.4831554,91.5639248 54.5454545,100 Z" id="Path" fill="url(#linearGradient-2)"></path><path d="M43.4343434,78.7878788 L43.5792461,78.7878788 L93.7865891,78.753851 L108.080808,64.6464646 L58.3110142,64.6464646 C50.0970235,64.6351373 43.4343434,70.9671492 43.4343434,78.7878788 Z" id="Path" fill="url(#linearGradient-3)"></path><path d="M85.8585859,21.2121212 L85.7875552,21.2121212 L35.3614375,21.2489773 L21.2121212,35.3535354 L70.9819151,35.3535354 C79.1959058,35.3535354 85.8585859,29.022786 85.8585859,21.2121212 Z" id="Path" fill="url(#linearGradient-4)"></path><polygon id="Path" fill="url(#linearGradient-5)" points="0 57.5643739 114.105102 57.5757576 115.411551 57.5757576 129.292929 43.5396428 14.1830857 43.4343434"></polygon></g></g></svg> 